<?xml version="1.0" encoding="utf-8"?>
<svg xmlns="http://www.w3.org/2000/svg" viewBox="0 0 24 24" width="192" height="192">
  <path d="M19.897,6.152l-3.401,1.985c-0.478,0.278-0.638,0.891-0.359,1.367C16.322,9.822,16.657,10,17.001,10 c0.171,0,0.345-0.044,0.503-0.137l3.393-1.98C20.738,7.22,20.393,6.618,19.897,6.152z" fill="#FFFFFF" />
  <path d="M12,21.733c0.338,0,0.672-0.065,1-0.163V18c0-0.553-0.447-1-1-1s-1,0.447-1,1v3.57C11.328,21.668,11.662,21.733,12,21.733z" fill="#FFFFFF" />
  <path d="M6.496,9.863C6.654,9.956,6.828,10,6.999,10c0.344,0,0.679-0.178,0.864-0.496c0.278-0.477,0.118-1.089-0.359-1.367 L4.103,6.152c-0.496,0.466-0.841,1.068-1,1.731L6.496,9.863z" fill="#FFFFFF" />
  <g opacity=".35">
    <path d="M19.147,5.612l-5.501-2.935c-1.031-0.549-2.261-0.55-3.294,0.001l-5.5,2.934C3.71,6.222,3,7.405,3,8.7v6.6 c0,1.295,0.71,2.479,1.853,3.088l5.501,2.935c0.516,0.274,1.081,0.411,1.646,0.411s1.131-0.137,1.647-0.412l5.5-2.934 C20.29,17.778,21,16.595,21,15.3V8.7C21,7.405,20.29,6.222,19.147,5.612z" fill="#FFFFFF" />
  </g>
  <circle cx="12" cy="12" r="3" fill="#FFFFFF" />
</svg>