<?xml version="1.0" encoding="utf-8"?>
<svg xmlns="http://www.w3.org/2000/svg" viewBox="0 0 24 24" width="192" height="192">
  <path d="M21,7V5c0-1.105-0.895-2-2-2H5C3.895,3,3,3.895,3,5v2c0,1.105,0.895,2,2,2c-1.105,0-2,0.895-2,2v2c0,1.105,0.895,2,2,2c-1.105,0-2,0.895-2,2v2c0,1.105,0.895,2,2,2h14c1.105,0,2-0.895,2-2v-2c0-1.105-0.895-2-2-2c1.105,0,2-0.895,2-2v-2c0-1.105-0.895-2-2-2C20.105,9,21,8.105,21,7z" opacity=".35" fill="#FFFFFF" />
  <path d="M21,7V6L5,9h14C20.105,9,21,8.105,21,7z" fill="#FFFFFF" />
  <path d="M12.449,19.603L5,21h7.341C12.256,20.529,12.289,20.049,12.449,19.603z" fill="#FFFFFF" />
  <path d="M13.59,14.565c0.517-0.631,1.281-0.993,2.096-0.993c0.061,0,0.121,0.002,0.181,0.006c0.131-0.271,0.319-0.504,0.53-0.715 L5,15h8.289C13.39,14.855,13.477,14.702,13.59,14.565z" fill="#FFFFFF" />
  <path d="M23,19c0-0.38,0.171-0.719,0.44-0.946c0.239-0.203,0.344-0.525,0.234-0.819c-0.194-0.513-0.469-0.986-0.81-1.402c-0.192-0.234-0.514-0.323-0.796-0.215c-0.338,0.13-0.729,0.114-1.068-0.082c-0.34-0.196-0.55-0.528-0.605-0.887c-0.045-0.294-0.278-0.529-0.571-0.579C19.556,14.024,19.281,14,19,14s-0.556,0.024-0.823,0.07c-0.293,0.05-0.526,0.285-0.571,0.579C17.55,15.008,17.34,15.34,17,15.536c-0.339,0.196-0.729,0.212-1.068,0.082c-0.282-0.109-0.604-0.019-0.796,0.215c-0.342,0.417-0.617,0.889-0.81,1.402c-0.111,0.294-0.006,0.616,0.234,0.819C14.829,18.281,15,18.62,15,19c0,0.38-0.171,0.719-0.44,0.946c-0.239,0.203-0.344,0.525-0.234,0.819c0.194,0.513,0.469,0.986,0.81,1.402c0.192,0.234,0.514,0.323,0.796,0.215c0.338-0.13,0.729-0.114,1.068,0.082c0.34,0.196,0.55,0.528,0.605,0.887c0.045,0.294,0.278,0.529,0.571,0.579C18.444,23.976,18.719,24,19,24s0.556-0.024,0.823-0.07c0.293-0.05,0.526-0.285,0.571-0.579c0.055-0.36,0.265-0.691,0.605-0.887c0.339-0.196,0.729-0.212,1.068-0.082c0.282,0.109,0.604,0.019,0.796-0.215c0.342-0.417,0.617-0.889,0.81-1.402c0.111-0.293,0.006-0.616-0.234-0.819C23.171,19.719,23,19.38,23,19z M19,21c-1.105,0-2-0.896-2-2s0.895-2,2-2s2,0.896,2,2S20.105,21,19,21z" fill="#FFFFFF" />
</svg>