<?xml version="1.0" encoding="utf-8"?>
<svg xmlns="http://www.w3.org/2000/svg" viewBox="0 0 24 24" width="192" height="192">
  <rect width="6" height="6" x="9" y="15" opacity=".35" fill="#FFFFFF" />
  <circle cx="12" cy="7" r="5" opacity=".35" fill="#FFFFFF" />
  <path d="M18,15c-0.146,0-2.161,0-4.5,0l-0.844,1.406L13.909,21c2.16,0,3.954,0,4.091,0c1.657,0,3-1.343,3-3S19.657,15,18,15z" fill="#FFFFFF" />
  <path d="M11.344,16.406L10.5,15c-2.339,0-4.354,0-4.5,0c-1.657,0-3,1.343-3,3s1.343,3,3,3c0.137,0,1.931,0,4.091,0L11.344,16.406z" fill="#FFFFFF" />
</svg>