<?xml version="1.0" encoding="utf-8"?>
<svg xmlns="http://www.w3.org/2000/svg" viewBox="0 0 24 24" width="192" height="192">
  <path d="M19.619,15.481C18.553,14.667,15.897,13,12,13s-6.553,1.667-7.619,2.481C3.552,16.015,3,16.941,3,18c0,1.657,1.343,3,3,3s3-1.343,3-3v-1.057h6V18c0,1.657,1.343,3,3,3s3-1.343,3-3C21,16.941,20.448,16.015,19.619,15.481z" opacity=".35" fill="#FFFFFF" />
  <path d="M12,11.994c-0.696,0-1.393-0.265-1.922-0.795L5.415,6.536c-0.586-0.586-0.586-1.535,0-2.121s1.535-0.586,2.121,0L12,8.879l4.939-4.939c0.586-0.586,1.535-0.586,2.121,0s0.586,1.535,0,2.121l-5.139,5.139C13.393,11.729,12.696,11.994,12,11.994z" fill="#FFFFFF" />
  <path d="M18.898,3l-3.676,0.018c-1.088,0.005-1.63,1.321-0.86,2.091l3.531,3.531c0.769,0.769,2.085,0.228,2.091-0.86L20,4.102C20.003,3.492,19.508,2.997,18.898,3z" fill="#FFFFFF" />
</svg>