<?xml version="1.0" encoding="utf-8"?>
<svg xmlns="http://www.w3.org/2000/svg" viewBox="0 0 24 24" width="192" height="192">
  <path fill-rule="evenodd" d="M11.112,1.856C11.369,1.665,11.68,1.562,12,1.562c0.32,0,0.631,0.103,0.888,0.294l1.828,1.36c0.036,0.027,0.076,0.047,0.118,0.061c0.042,0.014,0.087,0.021,0.132,0.02l2.278-0.026c0.32-0.004,0.633,0.096,0.891,0.284c0.259,0.188,0.45,0.455,0.546,0.76l0.68,2.174c0.013,0.043,0.034,0.083,0.06,0.119c0.026,0.036,0.058,0.068,0.095,0.094l1.858,1.318c0.261,0.185,0.455,0.449,0.554,0.754c0.099,0.304,0.097,0.632-0.005,0.936l-0.728,2.159c-0.014,0.042-0.022,0.087-0.022,0.131s0.007,0.089,0.022,0.131l0.728,2.159c0.102,0.303,0.104,0.631,0.005,0.936c-0.099,0.304-0.293,0.569-0.554,0.754l-1.858,1.318c-0.036,0.026-0.068,0.057-0.095,0.094c-0.026,0.036-0.046,0.076-0.06,0.119l-0.68,2.174c-0.095,0.305-0.287,0.572-0.546,0.76c-0.259,0.188-0.571,0.288-0.891,0.284l-2.278-0.026c-0.045-0.001-0.089,0.006-0.132,0.02c-0.042,0.014-0.082,0.034-0.118,0.061l-1.828,1.36c-0.257,0.191-0.568,0.294-0.888,0.294c-0.32,0-0.631-0.103-0.888-0.294l-1.828-1.36c-0.036-0.027-0.076-0.047-0.118-0.061c-0.042-0.014-0.087-0.021-0.132-0.02l-2.278,0.026c-0.32,0.004-0.633-0.096-0.891-0.284c-0.259-0.188-0.45-0.455-0.546-0.76l-0.68-2.174c-0.013-0.043-0.034-0.083-0.06-0.119c-0.026-0.036-0.058-0.068-0.095-0.094l-1.858-1.318c-0.261-0.185-0.455-0.449-0.554-0.754c-0.099-0.304-0.097-0.632,0.005-0.936l0.728-2.159C2.821,12.089,2.828,12.045,2.828,12s-0.007-0.089-0.022-0.131L2.078,9.71C1.976,9.407,1.974,9.079,2.073,8.774C2.172,8.47,2.366,8.206,2.627,8.021l1.858-1.318C4.521,6.676,4.553,6.645,4.58,6.609c0.026-0.036,0.046-0.076,0.06-0.119l0.68-2.174c0.095-0.305,0.287-0.572,0.546-0.76c0.259-0.188,0.571-0.288,0.891-0.284l2.278,0.026c0.045,0.001,0.089-0.006,0.132-0.02c0.042-0.014,0.082-0.034,0.118-0.061L11.112,1.856z" clip-rule="evenodd" opacity=".35" fill="#FFFFFF" />
  <path d="M11,16c-0.256,0-0.512-0.098-0.707-0.293l-3-3c-0.391-0.391-0.391-1.023,0-1.414s1.023-0.391,1.414,0L11,13.586l4.293-4.293c0.391-0.391,1.023-0.391,1.414,0s0.391,1.023,0,1.414l-5,5C11.512,15.902,11.256,16,11,16z" fill="#FFFFFF" />
</svg>