<?xml version="1.0" encoding="utf-8"?>
<svg xmlns="http://www.w3.org/2000/svg" viewBox="0 0 24 24" width="192" height="192">
  <path d="M16.28,16l-3.09,3.09c-0.76,0.76-1.19,1.8-1.19,2.86V22H6c-1.66,0-3-1.34-3-3c0-1.66,1.34-3,3-3H16.28z" fill="#FFFFFF" />
  <circle cx="12" cy="8" r="5" opacity=".35" fill="#FFFFFF" />
  <path d="M20.56,17.44L16,22h-5c0-1.06,0-6,0-6h7C19.09,16,20.04,16.57,20.56,17.44z" opacity=".35" fill="#FFFFFF" />
  <path d="M23.138,14.376c-0.827-0.595-1.987-0.42-2.707,0.3l-5.832,5.832C14.216,20.892,14,21.412,14,21.955l0,1.259 C14,23.648,14.352,24,14.786,24l1.259,0c0.542,0,1.063-0.215,1.446-0.599l5.909-5.909C24.279,16.613,24.192,15.135,23.138,14.376z" fill="#FFFFFF" />
</svg>