<?xml version="1.0" encoding="utf-8"?>
<svg xmlns="http://www.w3.org/2000/svg" viewBox="0 0 24 24" width="192" height="192">
  <path d="M22.944,7.48l-9.501-5.116c-0.901-0.485-1.985-0.485-2.886,0L1.056,7.48C0.436,7.813,0.106,8.393,0.032,9c0.074,0.607,0.405,1.187,1.024,1.52l9.501,5.116c0.901,0.485,1.985,0.485,2.886,0l9.501-5.116C23.39,10.28,24,10,24,10s0-1-0.032-1C23.894,8.393,23.564,7.813,22.944,7.48z" opacity=".35" fill="#FFFFFF" />
  <path d="M20,10.649c0-0.393-0.234-0.733-0.574-0.826C18.381,9.536,15.905,9,12,9S5.619,9.536,4.574,9.823C4.234,9.917,4,10.256,4,10.649l0.008,6.853c0.001,0.73,0.531,1.371,1.275,1.482c0.031,0.004,3.142,0.489,5.756,2.668C11.318,21.884,11.659,22,12,22s0.682-0.116,0.96-0.348c2.614-2.179,5.725-2.664,5.751-2.667C19.46,18.878,20,18.236,20,17.502V10.649z" fill="#FFFFFF" />
  <path d="M23,19c-0.552,0-1-0.448-1-1v-8c0-0.552,0.448-1,1-1s1,0.448,1,1v8C24,18.552,23.552,19,23,19z" fill="#FFFFFF" />
</svg>