<?xml version="1.0" encoding="utf-8"?>
<svg xmlns="http://www.w3.org/2000/svg" viewBox="0 0 24 24" width="192" height="192">
  <path d="M14,21H5c-1.657,0-3-1.343-3-3V7c0-1.657,1.343-3,3-3h9c1.657,0,3,1.343,3,3v11C17,19.657,15.657,21,14,21z" opacity=".35" fill="#FFFFFF" />
  <path d="M10.791,16.148l-0.218-0.97H8.327l-0.218,0.97C7.997,16.646,7.555,17,7.045,17h0c-0.707,0-1.227-0.662-1.06-1.349l1.768-7.273C7.949,7.569,8.673,7,9.506,7h0c0.833,0,1.558,0.571,1.754,1.381l1.756,7.272C13.181,16.339,12.661,17,11.955,17h-0.1C11.345,17,10.903,16.646,10.791,16.148z M9.484,9.175H9.428l-0.847,4.251h1.709L9.484,9.175z" fill="#FFFFFF" />
  <path d="M19,4h-5c1.657,0,3,1.343,3,3v11c0,1.657-1.343,3-3,3h5c1.657,0,3-1.343,3-3V7C22,5.343,20.657,4,19,4z" fill="#FFFFFF" />
</svg>