<?xml version="1.0" encoding="utf-8"?>
<svg xmlns="http://www.w3.org/2000/svg" viewBox="0 0 24 24" width="192" height="192">
  <ellipse cx="22.417" cy="6.5" opacity=".35" rx="1.001" ry="2.002" transform="rotate(-45.001 22.416 6.5)" fill="#FFFFFF" />
  <circle cx="18" cy="4.5" r="2.5" opacity=".35" fill="#FFFFFF" />
  <circle cx="11" cy="10" r="2" opacity=".35" fill="#FFFFFF" />
  <path d="M12,13h-2c-1.105,0-2,0.895-2,2v3c0,0.552,0.448,1,1,1v2c0,0.552,0.448,1,1,1s1.448,0,2,0s1-0.448,1-1v-2 c0.552,0,1-0.448,1-1v-3C14,13.895,13.105,13,12,13z" opacity=".35" fill="#FFFFFF" />
  <circle cx="4" cy="4.5" r="2.5" opacity=".35" fill="#FFFFFF" />
  <path d="M22.434,10.483c-0.175-1-0.838-1.802-1.714-2.203C20.338,8.106,19.92,8,19.479,8H19H16.92l-5.34-3.814c-0.363-0.259-0.855-0.247-1.206,0.033L5.649,8H4H3c-1.657,0-3,1.343-3,3v5.5c0,0.658,0.427,1.212,1.017,1.414C1.015,17.943,1,17.969,1,17.999c0,0.823,0,2.165,0,2.988C0.992,21.545,1.443,22,2,22c0.552,0,1-0.448,1-1c0-0.186,0-2.814,0-3c0-0.552,0.448-1,1-1s1,0.448,1,1c0,0.186,0,2.814,0,3c0,0.552,0.448,1,1,1c0.556,0,1.007-0.455,1-1.013c0-0.644,0-8.238,0-11.506l4.034-3.227L15.72,9.6l-1.264,7.228C14.348,17.44,14.819,18,15.44,18H16c0,0.186,0,2.814,0,3c0,0.552,0.448,1,1,1s1-0.448,1-1c0-0.186,0-2.814,0-3h2c0,0.186,0,2.814,0,3c0,0.552,0.448,1,1,1s1-0.448,1-1c0-0.186,0-2.814,0-3h0.56c0.621,0,1.091-0.56,0.984-1.171L22.434,10.483z" fill="#FFFFFF" />
</svg>