<?xml version="1.0" encoding="utf-8"?>
<svg xmlns="http://www.w3.org/2000/svg" viewBox="0 0 24 24" width="192" height="192">
  <path d="M18,21H6c-1.657,0-3-1.343-3-3V7h18v11C21,19.657,19.657,21,18,21z" opacity=".35" fill="#FFFFFF" />
  <path d="M21,7H3V6c0-1.657,1.343-3,3-3h12c1.657,0,3,1.343,3,3V7z" fill="#FFFFFF" />
  <path d="M11.001,19c-0.081,0-0.162-0.009-0.244-0.03c-0.536-0.134-0.861-0.677-0.728-1.213l2-8c0.134-0.536,0.679-0.86,1.213-0.728c0.536,0.134,0.861,0.677,0.728,1.213l-2,8C11.856,18.697,11.449,19,11.001,19z" fill="#FFFFFF" />
  <path d="M16,17c-0.256,0-0.512-0.098-0.707-0.293c-0.391-0.391-0.391-1.023,0-1.414L16.586,14l-1.293-1.293c-0.391-0.391-0.391-1.023,0-1.414s1.023-0.391,1.414,0l2,2c0.391,0.391,0.391,1.023,0,1.414l-2,2C16.512,16.902,16.256,17,16,17z" fill="#FFFFFF" />
  <path d="M8,17c-0.256,0-0.512-0.098-0.707-0.293l-2-2c-0.391-0.391-0.391-1.023,0-1.414l2-2c0.391-0.391,1.023-0.391,1.414,0s0.391,1.023,0,1.414L7.414,14l1.293,1.293c0.391,0.391,0.391,1.023,0,1.414C8.512,16.902,8.256,17,8,17z" fill="#FFFFFF" />
</svg>