<?xml version="1.0" encoding="utf-8"?>
<svg xmlns="http://www.w3.org/2000/svg" viewBox="0 0 24 24" width="192" height="192">
  <path d="M18,21H6c-1.657,0-3-1.343-3-3V8.765c0-1.09,0.591-2.093,1.543-2.622l6-3.333c0.906-0.503,2.008-0.503,2.914,0l6,3.333C20.409,6.672,21,7.676,21,8.765V18C21,19.657,19.657,21,18,21z" opacity=".35" fill="#FFFFFF" />
  <path d="M15,21H9v-6c0-1.105,0.895-2,2-2h2c1.105,0,2,0.895,2,2V21z" fill="#FFFFFF" />
  <path d="M20.499,9.23c-0.247,0-0.496-0.061-0.727-0.189l-6.839-3.8c-0.584-0.324-1.28-0.324-1.864,0l-6.839,3.8c-0.725,0.402-1.637,0.142-2.04-0.583c-0.402-0.724-0.142-1.637,0.583-2.04l6.839-3.8c1.496-0.832,3.282-0.831,4.778,0l6.839,3.8c0.724,0.402,0.985,1.315,0.583,2.04C21.537,8.952,21.026,9.23,20.499,9.23z" fill="#FFFFFF" />
</svg>