<?xml version="1.0" encoding="utf-8"?>
<svg xmlns="http://www.w3.org/2000/svg" viewBox="0 0 24 24" width="192" height="192">
  <path d="M20.1,14.402L16.775,12l-3.604,2.603c-0.699,0.505-1.643,0.505-2.342,0L7.225,12L3.9,14.402c-1.105,0.798-1.105,2.444,0,3.243l6.929,5.004c0.699,0.505,1.643,0.505,2.342,0l6.929-5.004C21.206,16.846,21.206,15.2,20.1,14.402z" opacity=".35" fill="#FFFFFF" />
  <path d="M20.1,10.379l-0.54-0.39l-6.389,4.614c-0.699,0.505-1.643,0.505-2.342,0L4.44,9.988l-0.54,0.39c-1.105,0.798-1.105,2.444,0,3.243l6.929,5.004c0.699,0.505,1.643,0.505,2.342,0l6.929-5.004C21.206,12.823,21.206,11.177,20.1,10.379z" fill="#FFFFFF" />
  <path d="M10.829,1.351L3.9,6.356C2.794,7.154,2.794,8.8,3.9,9.598l6.929,5.004c0.699,0.505,1.643,0.505,2.342,0L20.1,9.598c1.105-0.798,1.105-2.444,0-3.243l-6.929-5.004C12.472,0.846,11.528,0.846,10.829,1.351z" opacity=".35" fill="#FFFFFF" />
</svg>