<?xml version="1.0" encoding="utf-8"?>
<svg xmlns="http://www.w3.org/2000/svg" viewBox="0 0 24 24" width="192" height="192">
  <path d="M18,23H6c-1.657,0-3-1.343-3-3v-1c0-1.657,1.343-3,3-3h12c1.657,0,3,1.343,3,3v1C21,21.657,19.657,23,18,23z" opacity=".35" fill="#FFFFFF" />
  <circle cx="11.5" cy="16.5" r="2.5" fill="#FFFFFF" />
  <path d="M3.383,14.383c-0.813,0.813-2.355,0.589-2.355,0.589s-0.224-1.542,0.589-2.355s2.355-0.589,2.355-0.589 S4.196,13.57,3.383,14.383z" opacity=".35" fill="#FFFFFF" />
  <circle cx="8" cy="11" r="3" opacity=".35" fill="#FFFFFF" />
  <circle cx="16" cy="11" r="3" opacity=".35" fill="#FFFFFF" />
  <path d="M12,20h-1c-1.657,0-3,1.343-3,3l0,0h7l0,0C15,21.343,13.657,20,12,20z" fill="#FFFFFF" />
  <path d="M21.499,9c-0.235,0-0.474-0.056-0.697-0.173L12,4.195L3.199,8.827C2.464,9.215,1.558,8.932,1.173,8.199 c-0.386-0.733-0.104-1.64,0.628-2.026l9.5-5c0.438-0.23,0.96-0.23,1.397,0l9.5,5c0.733,0.386,1.015,1.292,0.628,2.026 C22.559,8.709,22.038,9,21.499,9z" fill="#FFFFFF" />
</svg>