<?xml version="1.0" encoding="utf-8"?>
<svg xmlns="http://www.w3.org/2000/svg" viewBox="0 0 24 24" width="192" height="192">
  <path d="M19,4c0-1.657-1.343-3-3-3H8C6.343,1,5,2.343,5,4v16c0,1.657,1.343,3,3,3h8c1.657,0,3-1.343,3-3V4z" opacity=".35" fill="#FFFFFF" />
  <path d="M14,19c-0.186,0-3.814,0-4,0c-0.552,0-1,0.448-1,1s0.448,1,1,1c0.186,0,3.814,0,4,0c0.552,0,1-0.448,1-1S14.552,19,14,19z" fill="#FFFFFF" />
  <path d="M7.5,16c-0.422,0-0.843-0.178-1.139-0.524l-3-3.5c-0.482-0.562-0.482-1.391,0-1.952l3-3.5c0.54-0.63,1.487-0.701,2.115-0.163C9.105,6.9,9.178,7.847,8.639,8.476L6.476,11l2.163,2.524c0.54,0.629,0.466,1.576-0.163,2.115C8.193,15.881,7.846,16,7.5,16z" fill="#FFFFFF" />
  <path d="M16.5,16c-0.346,0-0.693-0.119-0.976-0.361c-0.629-0.539-0.702-1.486-0.163-2.115L17.524,11l-2.163-2.524c-0.54-0.629-0.466-1.576,0.163-2.115c0.628-0.539,1.576-0.467,2.115,0.163l3,3.5c0.482,0.562,0.482,1.391,0,1.952l-3,3.5C17.342,15.822,16.922,16,16.5,16z" fill="#FFFFFF" />
</svg>