<?xml version="1.0" encoding="utf-8"?>
<svg xmlns="http://www.w3.org/2000/svg" viewBox="0 0 24 24" width="192" height="192">
  <ellipse cx="5" cy="16" opacity=".35" rx="4" ry="2" fill="#FFFFFF" />
  <ellipse cx="19" cy="16" opacity=".35" rx="4" ry="2" fill="#FFFFFF" />
  <path d="M5,20c-2.209,0-4-0.895-4-2v2c0,1.105,1.791,2,4,2s4-0.895,4-2v-2C9,19.105,7.209,20,5,20z" opacity=".35" fill="#FFFFFF" />
  <path d="M19,20c-2.209,0-4-0.895-4-2v2c0,1.105,1.791,2,4,2s4-0.895,4-2v-2C23,19.105,21.209,20,19,20z" opacity=".35" fill="#FFFFFF" />
  <ellipse cx="12" cy="13" opacity=".35" rx="4" ry="2" fill="#FFFFFF" />
  <path d="M15,18.31C14.267,18.73,13.202,19,12,19s-2.267-0.27-3-0.69V20c0,0.095-0.03,0.185-0.056,0.276 C9.678,20.715,10.767,21,12,21s2.322-0.285,3.056-0.724C15.03,20.185,15,20.095,15,20V18.31z" fill="#FFFFFF" />
  <path d="M19,18c-2.209,0-4-0.895-4-2c0-0.504,0.385-0.959,1-1.31V13c0,1.105-1.791,2-4,2s-4-0.895-4-2v1.69 c0.615,0.352,1,0.806,1,1.31c0,1.105-1.791,2-4,2s-4-0.895-4-2v2c0,1.105,1.791,2,4,2s4-0.895,4-2v-1.69 C9.733,16.73,10.798,17,12,17s2.267-0.27,3-0.69V18c0,1.105,1.791,2,4,2s4-0.895,4-2v-2C23,17.105,21.209,18,19,18z" fill="#FFFFFF" />
  <path d="M12,17c-1.202,0-2.267-0.27-3-0.69v2C9.733,18.73,10.798,19,12,19s2.267-0.27,3-0.69v-2C14.267,16.73,13.202,17,12,17z" opacity=".35" fill="#FFFFFF" />
  <path d="M12,2c-1.381,0-2.5,1.119-2.5,2.5S10.619,7,12,7s2.5-1.119,2.5-2.5S13.381,2,12,2z" opacity=".35" fill="#FFFFFF" />
  <g>
    <path d="M19.929,6.629c-0.205-0.514-0.791-0.763-1.3-0.558L13.807,8h-3.615L5.371,6.071c-0.509-0.205-1.095,0.044-1.3,0.558 c-0.205,0.513,0.045,1.095,0.558,1.3l0.382,0.153l3.422,1.645C8.78,9.894,9,10.244,9,10.629v1.061C9.733,11.27,10.798,11,12,11 s2.267,0.27,3,0.69v-1.061c0-0.384,0.22-0.735,0.567-0.901l3.423-1.647l0.381-0.152C19.884,7.724,20.134,7.142,19.929,6.629z" fill="#FFFFFF" />
  </g>
</svg>