<?xml version="1.0" encoding="utf-8"?>
<svg xmlns="http://www.w3.org/2000/svg" viewBox="0 0 24 24" width="192" height="192">
  <path d="M11,21H5c-1.105,0-2-0.895-2-2v-6c0-2.761,2.239-5,5-5h0c4.418,0,8,3.582,8,8v0C16,18.761,13.761,21,11,21z" opacity=".35" fill="#FFFFFF" />
  <path fill="#FFFFFF" d="M9.5,13C8.672,13,8,13.672,8,14.5c0,0.027,0.006,0.052,0.008,0.078l-4.934,4.934c0.183,0.691,0.723,1.231,1.414,1.414l4.934-4.934C9.448,15.994,9.473,16,9.5,16c0.828,0,1.5-0.672,1.5-1.5S10.328,13,9.5,13z" />
  <path d="M21.01,4.611L18.889,2.49c-0.781-0.781-2.047-0.781-2.828,0l-5.832,5.832c2.371,0.687,4.285,2.438,5.194,4.706l5.588-5.588 C21.791,6.658,21.791,5.392,21.01,4.611z" fill="#FFFFFF" />
</svg>