<?xml version="1.0" encoding="utf-8"?>
<svg xmlns="http://www.w3.org/2000/svg" data-name="Слой 1" viewBox="0 0 24 24" width="192" height="192">
  <path d="M10.00024,18.99988h4a0,0,0,0,1,0,0v2a1,1,0,0,1-1,1h-2a1,1,0,0,1-1-1v-2A0,0,0,0,1,10.00024,18.99988Z" fill="#FFFFFF" />
  <path d="M11.00024,1.99988h2a3,3,0,0,1,3,3v1a0,0,0,0,1,0,0h-8a0,0,0,0,1,0,0v-1A3,3,0,0,1,11.00024,1.99988Z" opacity=".35" fill="#FFFFFF" />
  <path d="M11.00024,3.99988h2a1,1,0,0,1,1,1v1a0,0,0,0,1,0,0h-4a0,0,0,0,1,0,0v-1A1,1,0,0,1,11.00024,3.99988Z" fill="#FFFFFF" />
  <path d="M18.50024,5.99988h-13a1.5,1.5,0,0,0,0,3h.5l.74139,7.4137a2.94817,2.94817,0,0,0,2.98645,2.5863H14.2724a2.94817,2.94817,0,0,0,2.98645-2.5863l.74139-7.4137h.5a1.5,1.5,0,1,0,0-3Z" opacity=".35" fill="#FFFFFF" />
  <path d="M23.8,16.39978l-1.46246-1.94995L19.08837,8.8797a1.49457,1.49457,0,0,1-.58813.12018h-.5l-.16949,1.69489,2.47119,4.23632-1.1015,1.46869A.9999.9999,0,0,0,20.8,17.6l.7002-.9336.7002.9336A.9999.9999,0,0,0,23.8,16.39978Z" fill="#FFFFFF" />
  <path d="M3.69854,14.93109l2.47119-4.23632L6.00024,8.99988h-.5a1.49457,1.49457,0,0,1-.58813-.12018L1.6629,14.44983.20044,16.39978A.9999.9999,0,0,0,1.8,17.6l.7002-.9336.7002.9336A.9999.9999,0,0,0,4.8,16.39978Z" fill="#FFFFFF" />
</svg>