<?xml version="1.0" encoding="utf-8"?>
<svg xmlns="http://www.w3.org/2000/svg" viewBox="0 0 24 24" width="192" height="192">
  <path d="M18.19,22H5.81c-1.028,0-1.888-0.779-1.99-1.801l-0.6-7C3.102,12.022,4.027,11,5.21,11h13.58c1.183,0,2.108,1.022,1.99,2.199l-0.6,7C20.078,21.221,19.218,22,18.19,22z" opacity=".35" fill="#FFFFFF" />
  <circle cx="12" cy="16.5" r="1.5" fill="#FFFFFF" />
  <circle cx="12" cy="5" r="3" opacity=".35" fill="#FFFFFF" />
  <path d="M19.299,3.65c-0.657-0.328-1.446,0.053-1.597,0.772L17.12,7.203c-0.061,0.29-0.247,0.539-0.509,0.678l-2.169,1.154C14.297,9.014,14.15,9,14,9h-4C9.85,9,9.703,9.014,9.558,9.035L7.389,7.881C7.127,7.742,6.941,7.494,6.88,7.203L6.298,4.422c-0.15-0.719-0.94-1.1-1.597-0.772C4.28,3.86,4.036,4.311,4.089,4.779l0.379,3.311c0.055,0.477,0.279,0.919,0.633,1.244L6.912,11h10.175l1.811-1.667c0.353-0.325,0.578-0.767,0.633-1.244l0.379-3.311C19.964,4.311,19.72,3.86,19.299,3.65z" fill="#FFFFFF" />
</svg>