<?xml version="1.0" encoding="utf-8"?>
<svg xmlns="http://www.w3.org/2000/svg" viewBox="0 0 24 24" width="192" height="192">
  <path d="M21.947,7.974c0.057-1.01-0.652-1.937-1.651-2.102C16.145,5.189,16.464,2,12,2S7.855,5.189,3.704,5.872C2.705,6.036,1.996,6.963,2.053,7.974C2.481,15.604,5.534,19.229,12,22C18.466,19.229,21.519,15.604,21.947,7.974z" opacity=".35" fill="#ff8800" />
  <path d="M13.179,15.746c0,0.353-0.205,1.254-1.185,1.254s-1.173-0.902-1.173-1.254c0-0.345,0.218-1.269,1.173-1.269S13.179,15.401,13.179,15.746z M10.919,11.919V7.568c0-0.597,0.484-1.081,1.081-1.081l0,0c0.597,0,1.081,0.484,1.081,1.081v4.352c0,0.596-0.484,1.08-1.081,1.08l0,0C11.403,13,10.919,12.516,10.919,11.919z" fill="#FFFFFF" />
</svg>