<?xml version="1.0" encoding="utf-8"?>
<svg xmlns="http://www.w3.org/2000/svg" viewBox="0 0 24 24" width="192" height="192">
  <path d="M21.997,7.974c0.057-1.01-0.655-1.937-1.659-2.102C16.166,5.189,16.487,2,12,2S7.834,5.189,3.662,5.872C2.659,6.036,1.946,6.963,2.003,7.974C2.433,15.604,5.502,19.229,12,22C18.498,19.229,21.567,15.604,21.997,7.974z" opacity=".35" fill="#c74a4a" />
  <path d="M13.414,12l2.293-2.293c0.391-0.391,0.391-1.023,0-1.414s-1.023-0.391-1.414,0L12,10.586L9.707,8.293c-0.391-0.391-1.023-0.391-1.414,0s-0.391,1.023,0,1.414L10.586,12l-2.293,2.293c-0.391,0.391-0.391,1.023,0,1.414C8.488,15.902,8.744,16,9,16s0.512-0.098,0.707-0.293L12,13.414l2.293,2.293C14.488,15.902,14.744,16,15,16s0.512-0.098,0.707-0.293c0.391-0.391,0.391-1.023,0-1.414L13.414,12z" fill="#FFFFFF" />
</svg>