<?xml version="1.0" encoding="utf-8"?>
<svg xmlns="http://www.w3.org/2000/svg" viewBox="0 0 24 24" width="192" height="192">
  <ellipse cx="3.465" cy="20.535" rx="1.429" ry="1.5" transform="rotate(-45.001 3.465 20.535)" fill="#FFFFFF" />
  <path d="M21.561,9.439l-7-7c-0.586-0.586-1.536-0.586-2.121,0c-0.586,0.586-0.586,1.536,0,2.121l0.109,0.109l-2.278,2.619 c-2.026-0.504-4.19-0.309-6.091,0.634c-1.316,0.653-1.58,2.426-0.542,3.465l8.975,8.975c1.039,1.039,2.812,0.774,3.465-0.542 c0.955-1.925,1.145-4.12,0.617-6.167l2.617-2.221l0.128,0.128c0.586,0.586,1.536,0.586,2.121,0 C22.146,10.975,22.146,10.025,21.561,9.439z" opacity=".35" fill="#FFFFFF" />
  <rect width="6.591" height="3" x="2.5" y="16.705" transform="rotate(-45.001 5.795 18.205)" fill="#FFFFFF" />
</svg>