<?xml version="1.0" encoding="utf-8"?>
<svg xmlns="http://www.w3.org/2000/svg" viewBox="0 0 24 24" width="192" height="192">
  <circle cx="12" cy="12" r="10" opacity=".35" fill="#FFFFFF" />
  <path d="M15.203,13.789l-1.167-1.509c-0.35-0.453-0.563-0.997-0.615-1.567L13,6c0-0.552-0.448-1-1-1h0c-0.552,0-1,0.448-1,1l-0.381,4.885c-0.075,0.96,0.316,1.898,1.051,2.521l2.119,1.797c0.391,0.391,1.024,0.391,1.414,0l0,0C15.594,14.813,15.594,14.179,15.203,13.789z" fill="#FFFFFF" />
  <path d="M21.124,7.921c0.249-0.094,0.464-0.271,0.577-0.544c0.587-1.409,0.308-3.094-0.838-4.24c-1.146-1.146-2.831-1.426-4.24-0.839c-0.272,0.114-0.45,0.329-0.544,0.577C18.32,3.879,20.121,5.68,21.124,7.921z" fill="#FFFFFF" />
  <path d="M2.876,7.921C3.879,5.68,5.68,3.879,7.921,2.876C7.827,2.627,7.65,2.412,7.377,2.298C5.968,1.711,4.283,1.99,3.137,3.137s-1.426,2.831-0.838,4.24C2.412,7.649,2.627,7.827,2.876,7.921z" fill="#FFFFFF" />
</svg>