<?xml version="1.0" encoding="utf-8"?>
<svg xmlns="http://www.w3.org/2000/svg" viewBox="0 0 24 24" width="192" height="192">
  <path d="M23.485,15.714l-3.501-1.944c-0.302-0.168-0.669-0.168-0.971,0l-3.499,1.944C15.197,15.891,15,16.226,15,16.589V22c0,0.552,0.448,1,1,1h1c0.552,0,1-0.448,1-1v-2.5c0-0.828,0.672-1.5,1.5-1.5h0c0.828,0,1.5,0.672,1.5,1.5V22c0,0.552,0.448,1,1,1h1c0.552,0,1-0.448,1-1v-5.411C24,16.225,23.803,15.891,23.485,15.714z" fill="#FFFFFF" />
  <circle cx="11" cy="7" r="5" opacity=".35" fill="#FFFFFF" />
  <path d="M17,21v-6h-3.533C13.172,15.47,13,16.015,13,16.589V21H17z" opacity=".35" fill="#FFFFFF" />
  <path d="M13,16.589c0-0.574,0.172-1.119,0.467-1.589H5c-1.657,0-3,1.343-3,3s1.343,3,3,3h8V16.589z" fill="#FFFFFF" />
</svg>