<?xml version="1.0" encoding="utf-8"?>
<svg width="512px" height="512px" viewBox="0 0 512 512" version="1.1" xmlns:xlink="http://www.w3.org/1999/xlink" xmlns="http://www.w3.org/2000/svg">
  <defs>
    <path d="M0 0L512 0L512 512L0 512L0 0Z" id="path_1" />
    <clipPath id="mask_1">
      <use xlink:href="#path_1" />
    </clipPath>
  </defs>
  <g id="mail">
    <path d="M0 0L512 0L512 512L0 512L0 0Z" id="Background" fill="#FFFFFF" fill-opacity="0" fill-rule="evenodd" stroke="none" />
    <g clip-path="url(#mask_1)">
      <g id="Group" transform="translate(16 76.05798)">
        <path d="M54.4928 360.743L425.507 360.743C455.587 360.71 479.967 336.333 480 306.25L480 54.4927C479.967 24.413 455.587 0.0326087 425.507 0L54.4928 0C24.413 0.0326083 0.0326087 24.413 0 54.4927L0 306.25C0.0326087 336.333 24.413 360.71 54.4928 360.743L54.4928 360.743ZM54.4928 344.511C46.1196 344.522 37.9746 341.768 31.3261 336.674L142.283 223.185C144.341 221.116 145.127 218.101 144.348 215.293C143.569 212.482 141.344 210.308 138.518 209.594C135.688 208.877 132.696 209.732 130.674 211.841L20.7536 324.272C17.7826 318.732 16.2283 312.54 16.2319 306.25L16.2319 72.3841L204.851 232.098C225.159 249.384 255.014 249.377 275.308 232.065L463.768 72.2283L463.768 306.25C463.775 312.565 462.21 318.775 459.217 324.33L348.638 211.819C345.489 208.652 340.377 208.62 337.188 211.746C334.004 214.884 333.946 219.996 337.062 223.196L448.627 336.71C441.986 341.779 433.862 344.522 425.507 344.511L54.4928 344.511ZM54.4928 16.2319L425.507 16.2319C445.304 16.2609 461.819 31.3623 463.609 51.0833L264.812 219.688C250.562 231.841 229.598 231.848 215.341 219.707L16.3841 51.2391C18.087 31.4565 34.6341 16.2609 54.4928 16.2319L54.4928 16.2319Z" id="Shape" fill="#FFFFFF" fill-rule="evenodd" stroke="none" />
      </g>
    </g>
  </g>
</svg>