<?xml version="1.0" encoding="utf-8"?>
<svg width="512px" height="512px" viewBox="0 0 512 512" version="1.1" xmlns:xlink="http://www.w3.org/1999/xlink" xmlns="http://www.w3.org/2000/svg">
  <defs>
    <path d="M0 0L512 0L512 512L0 512L0 0Z" id="path_1" />
    <clipPath id="mask_1">
      <use xlink:href="#path_1" />
    </clipPath>
  </defs>
  <g id="play">
    <path d="M0 0L512 0L512 512L0 512L0 0Z" id="Background" fill="#FFFFFF" fill-opacity="0" fill-rule="evenodd" stroke="none" />
    <g clip-path="url(#mask_1)">
      <g id="Group" transform="translate(49.12121 38.20984)">
        <g id="Play">
          <path d="M61.6171 435.544C50.5346 435.522 39.6586 432.635 30.1087 427.18C11.4587 416.834 -0.0352065 397.578 8.12847e-05 376.739L0.000100175 58.8101C-0.035471 37.9715 11.4582 18.7155 30.1081 8.36921C49.2517 -2.62238 73.0054 -2.79858 92.32 7.90773L382.842 166.891C401.923 177.144 413.764 196.635 413.764 217.794C413.764 238.952 401.923 258.443 382.842 268.696L92.32 427.68C82.9549 432.823 72.379 435.532 61.6171 435.544L61.6171 435.544ZM61.6171 25.6608C55.2202 25.6681 48.9418 27.3354 43.4331 30.4897C32.9243 36.2767 26.4257 47.0888 26.4112 58.8101L26.4112 376.777C26.4262 388.5 32.9253 399.312 43.4343 405.098C54.4881 411.439 68.199 411.542 79.3522 405.367L369.874 246.383C380.663 240.679 387.378 229.713 387.378 217.794C387.378 205.875 380.663 194.908 369.874 189.204L79.3522 30.2207C73.9435 27.2458 67.8348 25.6752 61.6171 25.6607L61.6171 25.6608Z" id="Shape" fill="#FFFFFF" fill-rule="evenodd" stroke="none" />
        </g>
      </g>
    </g>
  </g>
</svg>