<?xml version="1.0" encoding="utf-8"?>
<svg width="512px" height="512px" viewBox="0 0 512 512" version="1.1" xmlns:xlink="http://www.w3.org/1999/xlink" xmlns="http://www.w3.org/2000/svg">
  <defs>
    <path d="M0 0L512 0L512 512L0 512L0 0Z" id="path_1" />
    <clipPath id="mask_1">
      <use xlink:href="#path_1" />
    </clipPath>
  </defs>
  <g id="telegram">
    <path d="M0 0L512 0L512 512L0 512L0 0Z" id="Background" fill="#FFFFFF" fill-opacity="0" fill-rule="evenodd" stroke="none" />
    <g clip-path="url(#mask_1)">
      <g id="Group" transform="translate(-0.0002746582 32.79474)">
        <g id="Group">
          <g id="Group">
            <g id="Group">
              <path d="M397.836 96.1243L187.267 225.814C175.351 233.17 169.712 247.699 173.551 261.137L196.319 341.137C198.264 347.958 204.334 352.492 211.318 352.492C211.707 352.492 212.1 352.478 212.494 352.449C219.96 351.907 225.868 346.346 226.861 338.934L232.781 295.068C233.579 289.166 236.423 283.676 240.782 279.618L414.547 118.094C419.798 113.225 420.492 105.252 416.165 99.5493C411.831 93.8413 403.956 92.3653 397.836 96.1243L397.836 96.1243ZM221.888 260.683C214.08 267.951 208.993 277.772 207.565 288.338L204.694 309.616L188.167 251.544C186.824 246.84 188.802 241.753 192.972 239.179L347.23 144.172L221.888 260.683L221.888 260.683Z" id="Shape" fill="#FFFFFF" fill-rule="evenodd" stroke="none" />
              <path d="M503.67 5.58727C497.091 0.0112686 488.013 -1.52373 479.972 1.58227L15.0803 180.924C5.87328 184.475 -0.0467222 193.144 0.000277816 203.009C0.0482778 212.883 6.05528 221.504 15.3163 224.974L123.906 265.503L166.265 401.728C168.591 409.217 174.462 415.036 181.968 417.294C189.47 419.55 197.572 417.937 203.628 412.984L266.768 361.511C269.8 359.039 274.13 358.917 277.296 361.216L391.179 443.897C395.276 446.875 400.111 448.408 405.002 448.408C407.867 448.408 410.751 447.882 413.519 446.812C421.005 443.917 426.449 437.5 428.079 429.649L511.508 28.3403C513.26 19.8903 510.257 11.1723 503.67 5.58727L503.67 5.58727ZM491.536 24.1953L408.108 425.503C407.806 426.953 406.762 427.556 406.166 427.787C405.566 428.019 404.381 428.276 403.169 427.394L289.282 344.709C284.191 341.013 278.205 339.178 272.23 339.178C265.712 339.178 259.203 341.363 253.883 345.697L190.729 397.182C189.605 398.102 188.438 397.938 187.844 397.759C187.246 397.579 186.179 397.069 185.745 395.673L141.9 254.667C140.963 251.654 138.683 249.244 135.727 248.14L22.4623 205.867C20.7663 205.232 20.4053 203.909 20.4003 202.91C20.3953 201.92 20.7433 200.603 22.4233 199.955L487.316 20.6143C487.318 20.6133 487.321 20.6123 487.324 20.6113C488.834 20.0283 489.951 20.6983 490.483 21.1483C491.017 21.6033 491.867 22.6033 491.536 24.1953L491.536 24.1953Z" id="Shape" fill="#FFFFFF" fill-rule="evenodd" stroke="none" />
            </g>
          </g>
        </g>
      </g>
    </g>
  </g>
</svg>